PathFileType	4	(X/Y/Z)	Patient4_TMGait_0pt8_01_right_50.trc.trc
DataRate	CameraRate	NumFrames	NumMarkers	Units	OrigDataRate	OrigDataStartFrame	OrigNumFrames
88.607594936709	88.607594936709	4	33	mm	88.607594936709	53	       141
Frame#	Time	Sacral			L.Shoulder			Chest			R.Shoulder			Neck			R.ASIS			L.ASIS			R.Thigh.Superior			R.Thigh.Lateral			R.Thigh.Inferior			R.Patella			L.Thigh.Superior			L.Thigh.Lateral			L.Thigh.Inferior			L.Patella			L.Shank.Superior			L.Shank.Lateral			L.Shank.Inferior			R.Shank.Superior			R.Shank.Lateral			R.Shank.Inferior			R.Heel			R.Midfoot.Superior			R.Midfoot.Lateral			R.Toe			L.Heel			L.Midfoot.Lateral			L.Midfoot.Superior			L.Toe			L.Elbow			L.Wrist			R.Elbow			R.Wrist			
		X1	Y1	Z1	X2	Y2	Z2	X3	Y3	Z3	X4	Y4	Z4	X5	Y5	Z5	X6	Y6	Z6	X7	Y7	Z7	X8	Y8	Z8	X9	Y9	Z9	X10	Y10	Z10	X11	Y11	Z11	X12	Y12	Z12	X13	Y13	Z13	X14	Y14	Z14	X15	Y15	Z15	X16	Y16	Z16	X17	Y17	Z17	X18	Y18	Z18	X19	Y19	Z19	X20	Y20	Z20	X21	Y21	Z21	X22	Y22	Z22	X23	Y23	Z23	X24	Y24	Z24	X25	Y25	Z25	X26	Y26	Z26	X27	Y27	Z27	X28	Y28	Z28	X29	Y29	Z29	X30	Y30	Z30	X31	Y31	Z31	X32	Y32	Z32	X33	Y33	Z33	

53	56.896857142857	884.780211139317	1016.384994160041	556.472910289992	1042.511842053638	1442.259290128545	354.857559356004	1168.034343886147	1370.288878731815	498.439660379728	1112.724749169012	1440.420433538777	685.096270246872	1048.381883098278	1500.229248956732	512.705272279908	1121.413520529703	947.937485371787	642.066060994164	1073.474132758782	967.831034732136	372.802504800427	1142.688917906387	740.293130666908	617.836473382969	1052.656802703592	637.923166534631	681.945529436781	1120.361719270817	579.985069198132	599.582488140044	1114.296133418044	496.575329450350	604.772684170752	1166.882095986543	798.467446706570	394.186410480972	1125.806366091755	669.784264680402	316.606433206339	1240.688709627109	614.666908064373	364.928420053504	1259.266286200531	524.569087039937	354.490021741851	1194.562647983994	452.957238374587	355.726816705761	1049.965159613614	406.933708561784	321.075802998920	1045.326630849607	278.472489484189	378.848191865271	1089.424895588981	409.617028335744	611.713459392469	1022.127499602965	302.445173761463	672.245481873545	1068.361630333055	210.206031868672	606.079356454304	939.167999949145	44.200926843155	570.239592230295	1110.491189343011	97.415256891308	607.452065016039	1022.506326905164	37.100752879210	645.590323420117	1230.608688225979	45.029811301343	634.956821381719	860.455356522047	213.073779452552	434.374087307540	911.231120720682	164.243189990616	351.253280156986	1018.018753238699	173.007828921916	364.147290580478	1092.806401229306	59.491168272881	333.715187944110	977.613969772082	1088.385243179941	257.490665634320	1071.912222588466	843.269760353842	255.212809725935	1153.143244229878	1090.757901195966	805.106966729588	1309.541773770802	881.996527640030	798.961014919084	
54	56.908142857143	883.489683149255	1017.087077227096	557.360643934809	1041.206019198247	1442.125624700238	355.295757289741	1167.487343839654	1370.089748998275	498.142728988924	1113.593636446587	1440.744343515019	685.018284636927	1048.132386053869	1500.305880421853	512.933607970344	1120.006100819263	947.703900088222	642.653700962427	1071.688277006015	968.069462180103	373.456944792295	1138.004216393955	739.342423894073	617.970206829942	1046.483270506820	638.131297121283	682.650831311555	1113.023132511836	579.115156197960	600.377424781944	1105.988908806613	496.230283374152	605.624926307690	1166.617979590597	801.896895475861	394.628072619081	1127.891016874936	672.730957691176	316.297432077307	1243.791431095134	619.777052717195	363.894357069644	1264.583029572393	530.691216771582	353.452026310507	1203.263869497405	456.870351701292	354.705452876759	1061.321113337435	403.399150294682	319.869882088104	1063.675002549718	274.469320305151	377.059749497323	1080.762166103185	409.659711927573	612.290603419183	1013.238443855424	302.563419790157	672.661654922077	1059.459294692344	210.309021019707	606.407966126926	930.032989918394	44.210891810697	570.270902909667	1101.433602693153	97.457309585279	607.668052758997	1013.395303137166	37.094806810402	645.639738228369	1221.472542038431	45.024568200298	635.015996181932	882.625366647974	198.661512297764	432.509989588906	935.851366170259	153.348189600162	348.910344358688	1042.117158626939	167.861412807058	361.685152970124	1123.079848044033	58.952578219701	330.200262096520	969.332332420030	1089.299484176586	259.600482797695	1047.137756744909	838.627237886560	258.336947864700	1166.720333351957	1092.857431887963	804.126464250187	1334.990304258006	893.777476862956	795.926189091147	
55	56.919428571429	882.161255636928	1017.668044679253	558.051072603873	1040.074260101527	1441.845834301008	355.643355604752	1167.028221997597	1369.689227313803	497.799528536172	1114.479871934305	1440.867144865871	684.859967522984	1047.963566967288	1500.204012887237	513.075645353445	1118.558458952083	947.296847664707	643.124278182961	1070.015230965671	968.126939071449	373.954908368658	1133.298508189055	738.313788572507	617.999339722145	1040.421270764779	638.246579019253	683.264939083025	1105.791989994810	578.224567772672	601.070104384527	1097.840089478993	495.818453264446	606.414382951993	1166.020211697547	804.662294667510	395.020848329423	1129.289083380137	675.064430326602	316.058316404449	1245.903139569092	623.948596650261	363.120199897714	1268.664864611455	536.099401368463	352.772526431109	1211.030692014065	460.299773239540	353.883617726961	1072.573020344505	398.973877406329	318.446786141190	1082.414470280041	269.938785410135	374.979647288788	1072.208123065668	409.649875631750	612.827808199633	1004.434540312337	302.646008949380	673.042676841323	1050.579051855679	210.368671473732	606.706239365300	920.912017232870	44.203693794163	570.306780733092	1092.378750856432	97.509803047732	607.865886415478	1004.274727738277	37.081925839902	645.678777910282	1212.327586639539	45.024300984483	635.058765715144	906.156168080744	183.316142756722	429.846901422458	961.898885351578	141.819773150118	345.965880985126	1067.192709149738	162.351928519686	358.897238881574	1154.418734987062	58.588689281330	326.682885314853	961.204982180158	1090.301991308353	261.514373190762	1022.802401641158	835.410704258693	261.496638960791	1179.803270175255	1095.255380663120	802.927409465089	1359.492712474158	906.670343848319	792.545508535559	
56	56.930714285714	880.823937116468	1018.120856129681	558.555631963561	1039.129184609214	1441.425373573791	355.889948562441	1166.662824112741	1369.082076825128	497.402482321380	1115.390172743367	1440.778197831369	684.617745554075	1047.885860083939	1499.925073797206	513.136159360387	1117.092622365354	946.734602383547	643.464317989814	1068.447663841063	967.985941336483	374.279139054577	1128.638372009973	737.219820478100	617.952568555194	1034.528089785358	638.266457182833	683.790122229753	1098.737071902264	577.318053506765	601.658991915632	1089.907044204243	495.336218447471	607.125088023756	1165.095061305646	806.695185603502	395.381152151748	1129.983101882799	676.711436413598	315.911510939781	1246.991536604454	627.050386438624	362.683245125628	1271.462490867916	540.673028095755	352.518774325745	1217.777879927174	463.214758786749	353.305250208470	1083.733305924998	393.775150826494	316.804726468909	1101.470716003669	265.106757734600	372.652292574767	1063.824483947165	409.575891007056	613.318782768966	995.759641386034	302.692466476737	673.390020469144	1041.742132346958	210.376039223469	606.969145072880	911.805697223398	44.179382579221	570.354614596164	1083.316115136928	97.557767847502	608.035277706390	995.144438252016	37.062091679691	645.710269332838	1203.177192646860	45.023966769825	635.089846099532	931.064592640919	167.403325566065	426.392083715626	989.366895925699	130.047161636494	342.449792150230	1093.160330071704	156.814606929522	355.838088846944	1186.643195693977	58.799851568981	323.270644310947	953.239575666706	1091.397474603355	263.257931622181	999.108281911175	833.527637424423	264.687821667562	1192.374762330904	1097.888869279356	801.525996140051	1382.931569305161	920.552251635304	788.851909654689	
